# xmcd
#
# Track frame offsets: 
#        150
#        17527
#        38575
#        56695
#        72205
#        85187
#        101140
#        114710
#        130355
#        143382
#        158182
#        171417
#
# Disc length: 2506 seconds
#
# Revision: 5
# Processed by: cddbd v1.5.2PL0 Copyright (c) Steve Scherf et al.
# Submitted via: ExactAudioCopy v0.99pb5
#
DISCID=9d09c80c
DTITLE=Various Artist - The Rock Collection - TL 527-37 - 80s Rock - CD 2
DYEAR=1993
DGENRE=Rock
TTITLE0=John Farnham - Pressure down
TTITLE1=Ultravox - Vienna
TTITLE2=Daryl Hall and John Oates - Adult education
TTITLE3=Huey Lewis And The News - Do you believe in love
TTITLE4=Shakin' Stevens and Bonnie Tyler - A Rockin' good way
TTITLE5=Swing Out Sister - You on my mind
TTITLE6=Soft Cell - What!
TTITLE7=Thompson Twins - Don't mess with Doctor Dream
TTITLE8=Status Quo - Ol' Rag Blues
TTITLE9=Dennis Waterman - I could be so good for you
TTITLE10=Teardrop Explodes - Reward
TTITLE11=Herbie Hancock - Rockit
EXTD=
EXTT0=
EXTT1=
EXTT2=
EXTT3=
EXTT4=
EXTT5=
EXTT6=
EXTT7=
EXTT8=
EXTT9=
EXTT10=
EXTT11=
PLAYORDER=
